<svg xmlns="http://www.w3.org/2000/svg" viewBox="0 0 24 24" width="24px" height="24px">
  <path
    d="M19,7H6C5.448,7,5,6.551,5,6c0-0.551,0.448-1,1-1c0-0.702,0.127-1.374,0.349-2H6C4.346,3,3,4.346,3,6v13c0,1.103,0.897,2,2,2h14c1.103,0,2-0.897,2-2V9C21,7.897,20.103,7,19,7z M17,15c-0.552,0-1-0.448-1-1s0.448-1,1-1s1,0.448,1,1S17.552,15,17,15z"
    fill="currentColor" />
  <path fill="none" stroke="currentColor" stroke-width="2" d="M12 2A3 3 0 1 0 12 8A3 3 0 1 0 12 2Z" />
  <path fill="none" stroke="currentColor" stroke-width="2"
    d="M14.526,3.386C14.961,3.14,15.464,3,16,3c1.657,0,3,1.343,3,3c0,0.769-0.29,1.471-0.765,2.002" />
</svg>